<svg width="256" height="52" viewBox="0 0 256 52" fill="none" xmlns="http://www.w3.org/2000/svg">
<path d="M182.226 46.5766L180.367 45.3619L179.759 43.9566L178.994 43.8707L178.39 42.9966L179.354 42.159C179.254 40.6338 178.968 39.1263 178.497 37.6365L177.976 37.8015L175.675 39.5944L174.209 36.125L174.242 35.582L173.643 34.3373L177.099 32.1792L176.315 28.535L175.495 28.7942L172.961 30.4971L170.734 25.1381L174.663 22.6661C174.507 21.0494 174.158 19.3844 173.616 17.6712C173.066 15.9332 172.988 14.3465 173.38 12.9113L174.408 12.7912L175.27 12.1497L177.838 12.2387L178.14 12.6757L179.571 20.0485L180.437 19.9383L180.875 19.6361C182.013 20.5597 182.711 21.814 182.966 23.3993L182.304 24.6739L181.303 25.5233L181.886 28.5343L182.467 28.5556L183.18 27.9613C183.996 27.9491 184.422 28.3469 184.459 29.1546C185.979 28.865 187.495 28.5631 189.007 28.2487C189.145 26.7848 189.105 25.3223 188.889 23.8612L187.628 23.8912L184.792 25.157L184.045 23.9595L183.686 19.9759L184.458 19.5678L187.452 19.3174L187.587 18.5782L184.517 11.7238C185.468 10.9314 186.59 10.3309 187.881 9.92254L188.461 9.94383L189.658 9.19632C190.542 10.0912 191.146 11.2659 191.47 12.7204L191.474 13.2517L192.283 15.2903C193.397 19.9361 193.993 24.5822 194.069 29.2285C194.171 33.867 193.26 38.4569 191.337 42.9983L190.08 43.5596C189.359 42.8319 188.496 42.3945 187.494 42.2473L187.282 41.5769L187.799 40.8807L187.887 39.9925C188.951 37.744 189.349 35.4193 189.082 33.0185L188.113 33.3248C187.616 34.0831 186.897 34.4879 185.957 34.5394C185.399 33.8966 184.982 33.1407 184.707 32.2717L183.841 32.3819L182.844 33.7625C183.264 35.8692 183.582 37.9537 183.797 40.016C184.038 42.0705 183.821 44.1056 183.147 46.1213L182.226 46.5766ZM202.85 36.6527L200.421 36.3558C198.439 35.0981 197.278 33.1571 196.94 30.5328C196.162 26.5181 195.508 22.4641 194.978 18.3709C194.473 14.2698 194.185 10.2091 194.115 6.18879L195.127 5.50018L200.153 4.81165L200.353 5.44479L199.927 11.4794C200.844 10.2334 201.925 9.29054 203.17 8.65083L204.248 9.21103L206.522 12.384C205.41 13.4458 204.323 14.4997 203.261 15.5458C202.224 16.5841 201.154 17.6465 200.05 18.7331L200.254 19.8976C201.172 20.2082 202.127 20.2065 203.12 19.8923C203.747 20.4044 204.476 20.638 205.309 20.5931L207.159 20.7452L207.652 21.6546L206.513 26.6034L205.902 27.0017C204.138 26.0027 202.397 25.4199 200.678 25.2534L201.584 29.8014L202.268 30.2814L204.54 29.5627L207.847 27.4517L207.999 25.6009L208.436 25.2988C209.101 25.935 209.587 26.7373 209.894 27.7056L210.051 28.7211L210.706 30.2754L210.146 31.354C209.221 32.5751 208.143 33.6127 206.911 34.4668C205.687 35.3457 204.333 36.0743 202.85 36.6527ZM196.65 6.82084L196.497 6.33667L196.013 6.48981L196.166 6.97398L196.65 6.82084Z" fill="#333333"/>
<path d="M236.625 41.6094L236.078 40.75C235.062 40.0729 234.503 39.2266 234.398 38.2109C235.648 37.2995 236.859 36.375 238.031 35.4375C239.229 34.474 240.349 33.3672 241.391 32.1172V31.2578C240.583 28.888 240.01 26.401 239.672 23.7969L237.797 23.6406L237.289 25.0078L237.445 26.1797L236.781 28.2109C234.516 29.1224 232.185 29.7995 229.789 30.2422L229.633 31.4531H230.297L235.414 30.4375L235.922 30.5938L236.625 30.4375L236.938 32.2734C236.599 33.1849 236.312 34.1484 236.078 35.1641C233.812 35.8411 231.495 36.5182 229.125 37.1953L228.109 41.1016C226.964 41.4401 225.766 41.5573 224.516 41.4531L223.656 40.9453L223.344 38.2109H221.977L220.453 38.5625L219.945 38.3672L216.859 38.875L216.703 34.8125L217.367 33.2891L217.875 33.1328L219.594 33.4844L223.5 32.4688L223.656 31.1016L222.484 30.9453C221.13 31.388 219.659 31.6615 218.07 31.7656C217.758 26.7135 217.523 21.6354 217.367 16.5312L218.891 15.6719L219.086 14.6562L217.562 7.19531C218.786 6.28385 220.141 5.77604 221.625 5.67188L222.992 6.33594C223.435 8.73177 223.656 11.1667 223.656 13.6406L223.344 14.3047H223.852C225.648 13.9661 227.523 13.6927 229.477 13.4844L229.633 12.9766L227.25 12.7812L226.039 12.9766C225.701 11.388 225.596 9.7474 225.727 8.05469L225.883 6.33594L225.727 5.67188C226.508 5.09896 227.406 4.92969 228.422 5.16406L230.297 5.32031L231 5.16406L231.156 6.6875C230.818 8.95312 230.427 11.2188 229.984 13.4844H231.156C231.625 12.1302 232.198 10.8021 232.875 9.5C233.552 8.19792 234.06 6.80469 234.398 5.32031L236.078 5.00781C237.224 5.6849 238.422 6.24479 239.672 6.6875L239.828 7.70312L236.078 13.9922C237.12 14.2005 238.096 14.474 239.008 14.8125L239.164 15.3203L238.812 16.3359L239.008 16.8438L238.812 17.3516L239.516 17.7031L239.828 16.3359L239.672 10.9453C239.672 9.79948 240.01 8.77083 240.688 7.85938C241.26 7.41667 241.938 7.19531 242.719 7.19531L243.773 7.35156L244.789 7.19531L245.297 8.5625L244.789 16.3359L246.156 16.6875L253.812 16.3359L254.984 16.8438L255.336 17.8594L254.828 21.1016L245.609 22.4688L245.453 22.9766L246.156 26.0234H246.664C247.914 24.8776 249.333 24.0833 250.922 23.6406L253.969 26.1797V27.7031L248.344 32.7812L249.867 34.5L251.938 33.7969L252.094 34.6562C250.948 36.5833 249.698 38.3932 248.344 40.0859L247.172 40.2422L245.102 38.7188L244.086 36.8438L243.227 36.6875C241.091 38.4844 238.891 40.125 236.625 41.6094ZM231 35.6719V35.1641H230.492V35.6719H231ZM224.008 26.0234L224.359 24.3047L223.5 24.1484L221.977 24.6562L221.625 26.1797L224.008 26.0234ZM232.172 25.0078L232.523 24.1484L232.367 23.6406L232.523 22.625H231.508L229.984 23.1328L229.477 25.3203L230.492 25.5156L232.172 25.0078ZM224.008 20.5938L224.516 18.875L223.5 18.5625L222.484 18.875L222.133 21.1016L224.008 20.5938ZM240.023 19.2266V18.7188H239.516V19.2266H240.023ZM232.68 18.875L233.031 17.7031L231 17.5469C230.427 17.9896 230.258 18.5495 230.492 19.2266L231 19.3828L232.68 18.875ZM246.977 15.6719L246.469 12.2734C246.469 10.3464 246.807 8.77083 247.484 7.54688L249.867 6.6875L251.586 7.03906L252.445 13.4844C250.727 14.5 248.904 15.2292 246.977 15.6719ZM221.273 13.2891L220.766 12.7812V13.2891H221.273ZM250.57 13.2891V12.7812H250.062V13.2891H250.57ZM229.633 6.84375L229.789 6.33594L229.281 6.84375H229.633Z" fill="#333333"/>
<path d="M91.9004 43.2344L90.4531 42.5489L89.9961 42.6758C89.556 42.3034 89.3698 41.7871 89.4375 41.127C90.1146 39.4343 90.7832 37.75 91.4434 36.0742C92.1204 34.3815 92.7552 32.655 93.3477 30.8946L92.459 30.7676L89.8945 31.5547L89.5645 30.666C89.5645 29.3457 89.6745 28.0593 89.8945 26.8067C91.6719 26.739 93.4238 26.5528 95.1504 26.2481C95.7428 24.5723 96.4115 22.9219 97.1562 21.2969L97.4863 21.1953C98.9759 21.3308 100.313 21.8047 101.498 22.6172L101.6 23.2774C100.719 24.3776 100.127 25.5879 99.8223 26.9082C101.464 27.0606 102.878 27.6869 104.062 28.7871C104.807 29.5996 105.349 30.5052 105.688 31.5039C106.026 32.4857 106.195 33.5267 106.195 34.627C105.891 35.9473 105.476 37.2168 104.951 38.4356C104.443 39.6374 103.589 40.7207 102.387 41.6856L100.508 42.2188C99.763 40.9831 99.2044 39.6289 98.832 38.1563H99.1621L99.9492 38.4864C101.286 37.0983 101.913 35.4479 101.828 33.5352L101.6 32.6465C100.719 31.4785 99.6107 30.8946 98.2734 30.8946C97.1562 32.875 96.166 34.9147 95.3027 37.0137C94.4564 39.0957 93.4746 41.127 92.3574 43.1075L91.9004 43.2344ZM100.711 40.5684L100.838 40.2383L100.508 40.5684H100.711ZM107.516 33.4082L107.084 32.418L107.871 30.8946C107.499 29.4219 106.915 28.0593 106.119 26.8067C105.34 25.5541 104.621 24.2676 103.961 22.9473C104.841 22.3548 105.806 21.9147 106.855 21.627L110.08 24.7246C110.689 25.8249 111.248 26.9675 111.756 28.1524C112.281 29.3203 112.653 30.5222 112.873 31.7578L112.67 32.3164C111.028 32.9089 109.31 33.2728 107.516 33.4082ZM123.486 43.6407L121.709 43.209C121.709 42.1088 121.557 41.0762 121.252 40.1114C121.844 40.0437 122.361 39.8998 122.801 39.6797L123.156 39.7813C124.273 39.5612 125.348 39.1973 126.381 38.6895C127.43 38.1647 128.395 37.4961 129.275 36.6836C130.105 35.8711 130.443 34.8724 130.291 33.6875C129.174 32.655 127.76 32.2487 126.051 32.4688C124.934 32.8412 123.816 33.1966 122.699 33.5352C121.582 33.8568 120.541 34.4239 119.576 35.2364L118.916 36.125H118.459L116.783 35.1348C116.258 34.6101 116.072 33.9838 116.225 33.2559C116.529 31.8509 116.868 30.4545 117.24 29.0664C117.613 27.6615 118.095 26.2904 118.688 24.9532L119.678 24.3946C121.1 24.5469 122.369 25.0293 123.486 25.8418L123.588 26.4004C122.775 27.653 122.073 28.9395 121.48 30.2598H121.811C122.708 29.752 123.673 29.4219 124.705 29.2696C125.755 29.1172 126.838 29.0072 127.955 28.9395L128.387 29.041L128.717 28.9395C130.139 29.0918 131.442 29.4642 132.627 30.0567L133.516 30.8184L133.871 31.0469C134.751 32.4519 135.124 34.0684 134.988 35.8965C134.531 37.3861 133.71 38.681 132.525 39.7813C131.188 40.8138 129.775 41.6771 128.285 42.3711C126.796 43.0821 125.196 43.5052 123.486 43.6407ZM130.748 27.2891C129.326 26.9167 127.921 26.4935 126.533 26.0196C125.162 25.5287 123.85 24.9193 122.598 24.1914L122.471 23.3028L123.258 20.9668L123.588 20.8653C125.077 21.2377 126.618 21.5508 128.209 21.8047C129.817 22.0586 131.4 22.2956 132.957 22.5157C133.262 22.8203 133.38 23.2266 133.312 23.7344L132.195 26.959C131.823 27.2468 131.34 27.3568 130.748 27.2891ZM130.291 23.9629V23.6328H129.961V23.9629H130.291ZM155.275 42.1172C154.531 41.1693 153.938 40.1791 153.498 39.1465L153.828 38.7149L156.062 37.2676C157.112 36.3197 157.967 35.1856 158.627 33.8653L159.186 31.4278C159.27 29.9551 158.822 28.711 157.84 27.6953L157.637 27.3653C156.52 26.8405 155.326 26.5443 154.057 26.4766L153.828 27.2383L153.955 28.2285C153.87 30.0059 153.566 31.6817 153.041 33.2559C152.533 34.8301 151.678 36.2774 150.477 37.5977C149.732 38.1901 148.953 38.7487 148.141 39.2735C147.328 39.7813 146.397 40.069 145.348 40.1367C144.23 40.069 143.266 39.5528 142.453 38.5879C141.776 37.7077 141.251 36.7937 140.879 35.8457C140.507 34.8809 140.363 33.8145 140.447 32.6465C140.667 31.3939 140.947 30.1836 141.285 29.0157C141.624 27.8308 142.309 26.7982 143.342 25.918C144.764 24.53 146.363 23.599 148.141 23.125C149.935 22.6341 151.873 22.4649 153.955 22.6172C155.445 22.7696 156.816 23.1758 158.068 23.836C159.338 24.4961 160.531 25.3763 161.648 26.4766C162.309 27.4245 162.808 28.4147 163.146 29.4473C163.485 30.4798 163.578 31.6224 163.426 32.875C163.138 33.9753 162.749 35.0417 162.258 36.0742C161.767 37.0899 161.115 38.0378 160.303 38.918C159.49 39.5782 158.695 40.2383 157.916 40.8985C157.137 41.5586 156.257 41.9649 155.275 42.1172ZM146.693 35.6172C147.59 34.2292 148.335 32.7481 148.928 31.1739C149.52 29.5827 149.926 27.9408 150.146 26.2481L149.486 26.045C148.149 26.3327 146.998 27.0606 146.033 28.2285C145.424 29.1088 144.95 30.0313 144.611 30.9961C144.29 31.944 144.129 32.9681 144.129 34.0684C144.197 34.7285 144.527 35.321 145.119 35.8457L145.678 35.9473L146.693 35.6172Z" fill="#333333"/>
<path d="M16.9609 49.4688L14.0664 49.0117L11.832 49.2148L11.375 47.8945C12.1198 45.9987 12.4076 43.8659 12.2383 41.4961H9.14062C7.04167 42.1055 4.875 42.4102 2.64062 42.4102L1.77734 41.9531L0.660156 33.7773C2.58984 29.3763 4.77344 25.0599 7.21094 20.8281C9.68229 16.5625 12.0352 12.2122 14.2695 7.77734C15.0143 7.06641 15.9792 6.71094 17.1641 6.71094C19.7031 6.84635 21.7852 7.50651 23.4102 8.69141C22.9701 16.7487 22.2253 24.7552 21.1758 32.7109L23.207 33.5742L23.4102 39.1094L23.207 40.4297L21.6328 40.6328L20.3125 40.4297C20.0078 43.6458 19.1784 46.5742 17.8242 49.2148L16.9609 49.4688ZM13.6094 33.1172L14.9297 20.5742C13.4401 22.7747 12.069 24.9414 10.8164 27.0742C9.5638 29.207 8.48047 31.4414 7.56641 33.7773H8.48047L13.6094 33.1172ZM34.9375 47.2344C33.4479 47.099 32.1784 46.2865 31.1289 44.7969C29.6393 42.0208 28.7083 39.0586 28.3359 35.9102C27.9635 32.7279 27.7096 29.5286 27.5742 26.3125L27.9805 23.4688L27.7773 20.1172C28.3529 18.0859 28.9792 16.0885 29.6562 14.125C30.3333 12.1276 31.2643 10.2318 32.4492 8.4375C34.2435 6.40625 36.4779 5.45833 39.1523 5.59375C41.2513 5.59375 43.1133 6.10156 44.7383 7.11719C46.3633 9.79167 47.4805 12.737 48.0898 15.9531V27.4297L47.8359 28.0898L48.0898 32.0508C47.7852 34.082 47.3281 36.1302 46.7188 38.1953C46.1432 40.2604 45.3307 42.1732 44.2812 43.9336C41.6068 45.9987 38.4922 47.099 34.9375 47.2344ZM38.6953 39.5156C40.0495 36.4349 40.7266 33.0664 40.7266 29.4102C41.3698 24.1628 41.0651 19.0169 39.8125 13.9727L38.0352 13.5156C36.7148 15.8854 35.7839 18.3906 35.2422 21.0312C34.7344 23.6719 34.4805 26.3802 34.4805 29.1562C34.4805 32.8464 35.1406 36.2995 36.4609 39.5156L37.832 39.9727L38.6953 39.5156Z" fill="#333333"/>
<path d="M59.2108 47.9588C58.6341 46.1908 58.1526 44.3178 57.7663 42.3398C57.4018 40.3582 56.9788 38.4309 56.4973 36.5579L56.2636 34.275L56.0637 33.87L56.0997 33.2588L55.6735 33.3276L53.9638 35.6549L51.0305 33.942L50.8306 33.537C52.0671 30.916 53.3091 28.2605 54.5568 25.5705C55.8045 22.8804 56.9503 20.1844 57.9943 17.4823L58.8254 17.2138C60.3453 17.4619 61.8584 17.9465 63.3649 18.6676L63.6123 19.3676C62.7925 20.9573 61.9364 22.5303 61.044 24.0868C60.1734 25.6398 59.4227 27.2407 58.7918 28.8896L59.8079 28.7257L61.2291 28.3619C62.24 33.3782 62.8104 38.4432 62.9402 43.5568L62.7002 46.656C61.4687 46.9444 60.3055 47.3786 59.2108 47.9588ZM61.9938 46.0301L61.9251 45.6039L61.3679 45.6938L61.4366 46.1199L61.9938 46.0301ZM80.0098 41.3751C78.3743 40.9662 76.8263 40.1958 75.3657 39.0637C74.1475 38.1839 73.0499 37.2175 72.0729 36.1643C71.1177 35.1076 70.3905 33.9357 69.8914 32.6485L69.9326 32.0701L68.9228 32.0648C67.723 32.5498 66.4615 33 65.1384 33.4152L64.5007 33.2153L63.9699 33.4691C63.4109 31.8104 62.8409 30.1535 62.26 28.4983L67.8442 26.4204L67.5428 24.552C66.9562 23.974 66.6926 23.2429 66.7518 22.359C66.4768 20.6544 66.4564 18.9985 66.6904 17.3913L68.8115 16.7801L69.575 16.926L70.4061 16.6574L71.4075 17.2358L72.0737 21.366L71.9785 21.8185L72.3486 23.0705L72.2535 23.5231L72.6447 24.9061L80.4124 21.7698L80.7021 22.732L81.0046 26.4837C79.0442 27.6743 77.057 28.7684 75.043 29.7659L75.0282 30.5082C75.9587 32.107 77.3581 33.4844 79.2262 34.6405L80.4686 35.0455L82.0896 34.0441L82.2482 35.0275C81.8041 37.1395 81.193 39.1887 80.4148 41.1752L80.0098 41.3751ZM61.7738 40.079L61.7051 39.6529L61.2789 39.7216L61.3477 40.1477L61.7738 40.079ZM74.9118 22.4889C73.9728 20.4206 73.0429 18.3397 72.1222 16.246L72.9058 15.6824L73.7845 14.6662L75.8792 13.8911C76.6948 15.8896 77.7001 17.8127 78.895 19.6603L78.7998 20.1128C77.4492 20.9137 76.1531 21.7057 74.9118 22.4889Z" fill="#333333"/>
</svg>
