<svg width="383" height="36" viewBox="0 0 383 36" fill="none" xmlns="http://www.w3.org/2000/svg">
<path d="M19.3008 34.2344L16.6641 32.5469L16.5234 31.3164C17.6484 29.0898 18.6211 26.7812 19.4414 24.3906C20.2852 22 20.9648 19.5391 21.4805 17.0078C19.9336 17.1953 18.4805 17.3945 17.1211 17.6055C15.7852 17.8164 14.5078 18.0742 13.2891 18.3789C12.7734 20.5117 12.4102 22.6914 12.1992 24.918L8.47266 25.5508L7.24219 18.8359L6.32812 18.6602C4.99219 18.7773 3.80859 19.1875 2.77734 19.8906C2.35547 18.3672 2.14453 16.7852 2.14453 15.1445L2.60156 13.6328C4.14844 13.3281 5.69531 13.0703 7.24219 12.8594L7.55859 7.09375L7.41797 6.32031L8.01562 5.54688C9.98438 5.54688 11.8359 5.34766 13.5703 4.94922L14.2031 5.40625C13.3125 7.60937 13.1602 9.78906 13.7461 11.9453L16.3828 12.1211L18.8438 11.6641C20.1797 11.3594 21.4688 11.207 22.7109 11.207L23.3086 5.6875L23.168 4.77344L23.4844 4.03516L28.4062 3.71875L30.2695 4.17578V4.77344C29.8711 6.625 29.5078 8.46484 29.1797 10.293L30.9023 10.5742L32.1328 10.4336L32.9062 11.0312V11.8047C32.6953 12.9297 32.4844 14.1016 32.2734 15.3203L27.8086 16.2344C26.9883 19.4922 25.8516 22.6211 24.3984 25.6211C22.9688 28.6211 21.2695 31.4922 19.3008 34.2344ZM30.5859 13.1758V12.7188H30.1289V13.1758H30.5859ZM49.6392 33.7773L48.4087 32.5469C48.1978 29.0547 48.0455 25.5508 47.9517 22.0352C48.1392 18.8711 48.315 15.7422 48.4791 12.6484C48.6431 9.55469 48.983 6.47266 49.4986 3.40234C50.6236 3.09766 51.7486 2.94531 52.8736 2.94531C54.1158 2.85156 55.1002 3.10937 55.8267 3.71875C55.6158 5.24219 55.4283 6.76562 55.2642 8.28906C55.1236 9.8125 55.0533 11.3945 55.0533 13.0352C57.2095 13.7383 59.3892 14.3477 61.5923 14.8633C63.8189 15.3789 65.9634 16.0938 68.0259 17.0078L68.3423 17.9219C68.1314 19.3281 67.7681 20.6992 67.2525 22.0352L65.565 22.3164L54.7369 18.9766C54.4322 21.4141 54.1158 23.8516 53.7877 26.2891C53.483 28.7266 53.1314 31.1172 52.733 33.4609L49.6392 33.7773ZM93.0558 33.2852L91.1573 32.2305L90.9816 31.1406C92.7862 28.3984 94.4855 25.5508 96.0792 22.5977C97.673 19.6211 98.9503 16.5977 99.9112 13.5273C98.9503 13.2227 97.9425 13.1172 96.8878 13.2109C93.4425 13.0703 89.9855 13.5391 86.5167 14.6172C86.3058 16.6562 86.0362 18.6953 85.7081 20.7344C84.3487 21.5547 82.7667 21.9648 80.962 21.9648L80.4698 20.7344C80.0714 17.0312 80.1769 13.3516 80.7862 9.69531C82.4972 9.29687 84.255 9.09766 86.0597 9.09766L86.6925 9.23828L90.6652 8.78125C90.8761 6.4375 91.3566 4.1875 92.1066 2.03125L95.2706 1.75C96.1378 1.75 96.8292 2.05469 97.3448 2.66406L97.5206 3.71875C97.3097 5.35937 97.0402 7 96.712 8.64062C99.3605 8.52344 101.915 8.61719 104.376 8.92188L105.15 8.78125C106.228 9.20312 107.189 9.8125 108.032 10.6094L108.349 11.3828C106.216 14.9688 104.165 18.625 102.196 22.3516C100.251 26.0781 97.7316 29.4648 94.6378 32.5117L93.0558 33.2852ZM138.721 30.7188L138.229 29.4883L139.635 24.7773C140.877 24.6836 142.108 24.6836 143.326 24.7773C145.178 24.5664 147.076 24.3672 149.022 24.1797C150.99 23.9688 152.854 23.6055 154.612 23.0898C154.799 19.5508 155.115 15.9883 155.561 12.4023C154.834 12.0977 154.002 12.0039 153.065 12.1211C150.604 12.2148 148.213 12.4141 145.893 12.7188C143.572 13.0234 141.276 13.375 139.002 13.7734C138.604 13.375 138.451 12.8711 138.545 12.2617L138.721 11.8047L138.405 10.4336L138.545 9.97656L138.405 9.51953L138.721 8.28906H139.178L139.776 8.46484C141.229 8.04297 142.752 7.76172 144.346 7.62109C145.94 7.45703 147.51 7.32812 149.057 7.23438L149.514 7.375L150.463 7.23438L151.061 7.375C153.217 7.07031 155.479 6.97656 157.846 7.09375L162.487 7.83203L162.662 8.28906C162.03 11.6406 161.502 14.9688 161.08 18.2734C160.682 21.5781 159.967 24.8125 158.936 27.9766C156.99 28.6797 154.963 29.1602 152.854 29.418C150.744 29.6758 148.6 29.9102 146.42 30.1211L145.049 29.9453C142.987 30.25 140.877 30.5078 138.721 30.7188ZM158.338 20.0312L158.619 18.8359L158.022 20.0312H158.338ZM187.376 33.2852L185.477 32.2305L185.302 31.1406C187.106 28.3984 188.805 25.5508 190.399 22.5977C191.993 19.6211 193.27 16.5977 194.231 13.5273C193.27 13.2227 192.262 13.1172 191.208 13.2109C187.762 13.0703 184.305 13.5391 180.837 14.6172C180.626 16.6562 180.356 18.6953 180.028 20.7344C178.669 21.5547 177.087 21.9648 175.282 21.9648L174.79 20.7344C174.391 17.0312 174.497 13.3516 175.106 9.69531C176.817 9.29687 178.575 9.09766 180.38 9.09766L181.012 9.23828L184.985 8.78125C185.196 6.4375 185.677 4.1875 186.427 2.03125L189.591 1.75C190.458 1.75 191.149 2.05469 191.665 2.66406L191.841 3.71875C191.63 5.35937 191.36 7 191.032 8.64062C193.68 8.52344 196.235 8.61719 198.696 8.92188L199.47 8.78125C200.548 9.20312 201.509 9.8125 202.352 10.6094L202.669 11.3828C200.536 14.9688 198.485 18.625 196.516 22.3516C194.571 26.0781 192.052 29.4648 188.958 32.5117L187.376 33.2852ZM214.972 31.6328C214.222 29.8047 213.847 27.7773 213.847 25.5508C218.042 24.9414 222.074 23.9219 225.941 22.4922C229.831 21.0625 233.406 18.9297 236.663 16.0938L237.753 15.0039L239.16 14.2305L241.058 15.918C241.48 16.5273 241.738 17.2422 241.831 18.0625C238.058 21.625 233.921 24.6484 229.421 27.1328C224.921 29.6172 220.105 31.1172 214.972 31.6328ZM213.531 20.4883C213.226 20.0898 213.12 19.6328 213.214 19.1172C213.753 17.4062 214.339 15.6836 214.972 13.9492L216.062 13.7734C217.632 14.1953 219.179 14.6172 220.702 15.0391C222.226 15.4375 223.773 15.8359 225.343 16.2344L225.484 17.4648L224.218 19.75C222.859 20.4531 221.288 20.6992 219.507 20.4883L216.519 20.207L213.531 20.4883ZM223.761 14.0898C222.285 13.4805 220.808 12.8477 219.331 12.1914C217.878 11.5352 216.425 10.9492 214.972 10.4336L214.796 9.37891C215.007 8.16016 215.37 7.03516 215.886 6.00391L217.152 5.86328C218.839 6.26172 220.492 6.69531 222.109 7.16406C223.726 7.60937 225.226 8.39453 226.609 9.51953L226.749 9.97656C226.023 11.2891 225.285 12.6133 224.535 13.9492L223.761 14.0898ZM230.195 10.1172C229.679 8.80469 229.316 7.41016 229.105 5.93359C228.894 4.45703 228.683 2.95703 228.472 1.43359C229.527 1.03516 230.687 0.730469 231.952 0.519531C232.257 1.83203 232.562 3.17969 232.867 4.5625C233.195 5.94531 233.359 7.33984 233.359 8.74609L233.042 9.37891C232.199 9.77734 231.249 10.0234 230.195 10.1172ZM237.437 8.92188C236.593 8.92188 235.96 8.71094 235.538 8.28906L234.132 0.835938C235.07 0.320313 236.066 0.0625 237.12 0.0625L237.613 0.203125L238.386 0.0625L239.019 0.519531L240.285 8.14844C239.441 8.66406 238.492 8.92188 237.437 8.92188Z" fill="#444444"/>
<path d="M274.373 31.6367C274.101 31.3151 273.965 30.9378 273.965 30.5049C274.027 28.9587 274.027 27.4062 273.965 25.8477C274.014 24.4993 274.082 23.1696 274.169 21.8584C274.256 20.5472 274.404 19.2422 274.614 17.9434L276.896 17.5537C277.107 17.8135 277.237 18.1598 277.286 18.5928H277.62C278.103 18.3206 278.616 18.1598 279.16 18.1104C279.816 18.1598 280.385 18.4567 280.867 19.001C281.411 19.8545 281.684 20.8441 281.684 21.9697C281.572 22.8356 281.393 23.6829 281.146 24.5117C280.91 25.3405 280.546 26.1074 280.051 26.8125C279.346 27.3444 278.56 27.6351 277.694 27.6846L276.804 27.5361C276.532 28.6618 276.371 29.8431 276.321 31.0801L276.396 31.3955C275.802 31.6058 275.128 31.6862 274.373 31.6367ZM275.505 30.8389L274.855 30.6719V30.9131L275.505 30.8389ZM276.804 27.0537V26.8125H276.321V27.0537H276.804ZM278.344 24.7158C278.999 24.0107 279.271 23.1263 279.16 22.0625L278.752 21.4873C278.43 21.277 278.053 21.1966 277.62 21.2461L276.804 21.6543L276.396 24.8828C276.729 25.0931 277.082 25.1735 277.453 25.124L278.344 24.7158ZM280.626 17.9434L280.533 17.7021L280.793 17.6279L280.626 17.9434ZM287.008 29.0576C286.192 29.0081 285.511 28.6865 284.967 28.0928C284.472 27.4495 284.144 26.7568 283.984 26.0146C283.823 25.2601 283.773 24.4499 283.835 23.584C283.835 22.7799 283.953 22.0316 284.188 21.3389C284.435 20.6338 284.775 19.9596 285.208 19.3164C286.025 18.5618 286.977 18.1598 288.066 18.1104C289.266 17.999 290.274 18.3454 291.09 19.1494C291.684 19.6937 292.036 20.3307 292.148 21.0605C292.259 21.778 292.315 22.514 292.315 23.2686C292.203 24.0726 291.981 24.8519 291.647 25.6064C291.325 26.3486 290.867 27.0413 290.274 27.6846C289.346 28.5505 288.257 29.0081 287.008 29.0576ZM288.548 25.8477C289.043 25.2539 289.346 24.5674 289.457 23.7881C289.569 23.0088 289.593 22.2171 289.531 21.4131C289.148 20.7699 288.604 20.473 287.899 20.5225C287.416 20.7946 287.039 21.1719 286.767 21.6543C286.383 22.5078 286.216 23.4727 286.266 24.5488C286.6 24.821 286.792 25.1735 286.841 25.6064C287.274 25.8167 287.738 25.9466 288.233 25.9961L288.548 25.8477ZM285.95 21.4873L286.025 21.2461L285.783 21.5801L285.95 21.4873ZM296.377 29.4658L295.394 29.1318L295.32 28.6494L295.394 28.4082L295.32 28.0928L295.394 27.8516C295.233 27.5794 295.184 27.2578 295.246 26.8867L295.487 23.417C295.375 22.6748 295.307 21.9017 295.283 21.0977C295.258 20.2936 295.19 19.4834 295.079 18.667L295.561 18.4258L295.821 18.5186L296.637 18.3516L297.212 18.667L297.528 20.04L298.029 20.1328C298.957 19.1061 300.101 18.568 301.461 18.5186L301.962 18.667L302.111 19.4834L301.554 21.8955H301.294L300.311 21.7285L298.919 22.4521C298.598 23.3675 298.394 24.3262 298.307 25.3281C298.233 26.3177 298.14 27.2949 298.029 28.2598L298.103 29.2988L297.769 29.4658L297.212 29.3916L296.377 29.4658ZM308.177 28.9092L307.361 28.501C306.879 27.9691 306.551 27.3568 306.378 26.6641C306.217 25.9714 306.136 25.2477 306.136 24.4932L306.378 21.543C305.895 21.3822 305.382 21.3018 304.838 21.3018L304.671 20.8936L304.838 19.7803L304.671 19.0566C305.326 18.834 306.007 18.6732 306.712 18.5742L307.769 15.123L308.103 15.0488L308.511 15.123L308.753 15.0488L310.051 15.3643V15.8467L309.643 18.5742H310.144L311.35 18.4814L311.684 18.7227V19.0566L311.61 19.5391C311.82 19.7988 311.926 20.1143 311.926 20.4854C311.171 20.7575 310.355 20.9492 309.476 21.0605C309.204 22.0749 309.019 23.1387 308.92 24.252L309.161 26.0332L310.051 26.3486L310.868 26.1074C311.363 26.4785 311.579 26.93 311.517 27.4619C311.035 28.0062 310.466 28.4329 309.81 28.7422C309.315 28.903 308.771 28.9587 308.177 28.9092ZM309.068 18.4814V17.9248L308.827 18.4814H309.068ZM317.547 29.2061C317.324 28.2907 317.157 27.3506 317.046 26.3857C316.947 25.4085 316.897 24.4128 316.897 23.3984C316.922 22.5573 316.947 21.7161 316.972 20.875C316.316 20.6647 315.66 20.4544 315.005 20.2441L314.856 19.7432L315.005 18.7783L314.931 18.4629L315.005 18.2217L314.931 17.9805L315.172 17.4795H315.413L317.046 17.6465C317.219 16.9538 317.398 16.2549 317.584 15.5498C317.769 14.8447 318.11 14.1953 318.604 13.6016C319.421 13.0697 320.318 12.748 321.295 12.6367L321.944 12.8779L322.186 14.6592L321.944 15.3086H321.703L320.887 15.2158L320.404 15.624C320.182 16.2796 320.046 16.9538 319.996 17.6465C320.318 17.8073 320.67 17.863 321.054 17.8135L321.703 17.7393L321.944 18.2217C321.722 18.7041 321.61 19.2113 321.61 19.7432L321.703 20.3926L319.736 20.9678C319.365 23.0583 319.316 25.1611 319.588 27.2764L319.495 27.7588L319.588 28.7979C318.982 29.07 318.301 29.2061 317.547 29.2061ZM328.048 29.0576C327.232 29.0081 326.551 28.6865 326.007 28.0928C325.512 27.4495 325.184 26.7568 325.024 26.0146C324.863 25.2601 324.813 24.4499 324.875 23.584C324.875 22.7799 324.993 22.0316 325.228 21.3389C325.475 20.6338 325.815 19.9596 326.248 19.3164C327.065 18.5618 328.017 18.1598 329.106 18.1104C330.306 17.999 331.314 18.3454 332.13 19.1494C332.724 19.6937 333.076 20.3307 333.188 21.0605C333.299 21.778 333.355 22.514 333.355 23.2686C333.243 24.0726 333.021 24.8519 332.687 25.6064C332.365 26.3486 331.907 27.0413 331.314 27.6846C330.386 28.5505 329.297 29.0081 328.048 29.0576ZM329.588 25.8477C330.083 25.2539 330.386 24.5674 330.497 23.7881C330.609 23.0088 330.633 22.2171 330.571 21.4131C330.188 20.7699 329.644 20.473 328.939 20.5225C328.456 20.7946 328.079 21.1719 327.807 21.6543C327.423 22.5078 327.256 23.4727 327.306 24.5488C327.64 24.821 327.832 25.1735 327.881 25.6064C328.314 25.8167 328.778 25.9466 329.273 25.9961L329.588 25.8477ZM326.99 21.4873L327.065 21.2461L326.823 21.5801L326.99 21.4873ZM339.477 28.9834L338.327 28.8164L337.993 28.8906C337.782 28.1484 337.677 27.3506 337.677 26.4971C337.677 25.6312 337.646 24.7962 337.584 23.9922V18.3516L337.751 16.2549C337.207 16.0941 336.663 15.9333 336.119 15.7725L336.026 15.457L336.434 14.1582L337.918 13.7686L338.252 13.8428L340.126 13.4346C340.399 13.6572 340.726 13.7376 341.11 13.6758L341.184 14.1582C341.023 15.2962 340.887 16.4404 340.776 17.5908C340.677 18.7412 340.516 19.8792 340.293 21.0049V24.8828C340.182 25.526 340.139 26.2126 340.164 26.9424C340.201 27.6598 340.077 28.3092 339.792 28.8906L339.477 28.9834ZM337.677 15.6982V15.457H337.343V15.6982H337.677ZM348.382 28.9834C347.95 27.7959 347.789 26.5342 347.9 25.1982L348.067 21.2461C347.795 21.0853 347.492 21.0358 347.158 21.0977L346.917 21.1719L346.601 20.9307V20.5225L346.675 20.2812L346.508 19.6318L346.675 19.0752L348.716 18.834L350.257 19.001L350.498 18.9082L351.388 19.3906L351.463 20.374C351.03 21.71 350.733 23.0892 350.572 24.5117C350.411 25.9342 350.25 27.3691 350.09 28.8164L348.382 28.9834ZM349.923 17.5537L348.624 16.7373L348.308 15.624L348.791 14.4922C349.335 14.2201 349.929 14.0592 350.572 14.0098C351.116 14.0592 351.58 14.2695 351.964 14.6406C352.124 15.0241 352.174 15.457 352.112 15.9395L351.463 17.0713C351.03 17.3929 350.516 17.5537 349.923 17.5537ZM358.828 29.0576C358.012 29.0081 357.331 28.6865 356.787 28.0928C356.292 27.4495 355.964 26.7568 355.804 26.0146C355.643 25.2601 355.593 24.4499 355.655 23.584C355.655 22.7799 355.773 22.0316 356.008 21.3389C356.255 20.6338 356.595 19.9596 357.028 19.3164C357.845 18.5618 358.797 18.1598 359.886 18.1104C361.086 17.999 362.094 18.3454 362.91 19.1494C363.504 19.6937 363.856 20.3307 363.968 21.0605C364.079 21.778 364.135 22.514 364.135 23.2686C364.023 24.0726 363.801 24.8519 363.467 25.6064C363.145 26.3486 362.687 27.0413 362.094 27.6846C361.166 28.5505 360.077 29.0081 358.828 29.0576ZM360.368 25.8477C360.863 25.2539 361.166 24.5674 361.277 23.7881C361.389 23.0088 361.413 22.2171 361.351 21.4131C360.968 20.7699 360.424 20.473 359.719 20.5225C359.236 20.7946 358.859 21.1719 358.587 21.6543C358.203 22.5078 358.036 23.4727 358.086 24.5488C358.42 24.821 358.612 25.1735 358.661 25.6064C359.094 25.8167 359.558 25.9466 360.053 25.9961L360.368 25.8477ZM357.77 21.4873L357.845 21.2461L357.603 21.5801L357.77 21.4873Z" fill="#444444"/>
<path d="M376.006 23.8994L373.649 23.584L373.575 23.2686L373.649 22.8604L373.315 21.7285C373.315 21.2461 373.427 20.8193 373.649 20.4482C376.259 20.5348 378.869 20.5348 381.479 20.4482V21.4131L381.312 21.7285L381.479 23.1016L381.312 23.417C380.286 23.5778 379.253 23.7386 378.214 23.8994L376.748 23.8252L376.507 23.8994L376.266 23.8252L376.006 23.8994ZM375.523 23.0273V22.7861H374.707V23.0273H375.523ZM376.266 23.0273V22.7861H375.932V23.0273H376.266ZM374.466 21.1719V20.9307H374.225V21.1719H374.466Z" fill="#444444"/>
<path d="M258.006 23.8994L255.649 23.584L255.575 23.2686L255.649 22.8604L255.315 21.7285C255.315 21.2461 255.427 20.8193 255.649 20.4482C258.259 20.5348 260.869 20.5348 263.479 20.4482V21.4131L263.312 21.7285L263.479 23.1016L263.312 23.417C262.286 23.5778 261.253 23.7386 260.214 23.8994L258.748 23.8252L258.507 23.8994L258.266 23.8252L258.006 23.8994ZM257.523 23.0273V22.7861H256.707V23.0273H257.523ZM258.266 23.0273V22.7861H257.932V23.0273H258.266ZM256.466 21.1719V20.9307H256.225V21.1719H256.466Z" fill="#444444"/>
</svg>
